<?xml version="1.0" standalone="no"?>
<!DOCTYPE svg PUBLIC "-//W3C//DTD SVG 20010904//EN"
 "http://www.w3.org/TR/2001/REC-SVG-20010904/DTD/svg10.dtd">
<svg version="1.0" xmlns="http://www.w3.org/2000/svg"
 width="219.000000pt" height="217.000000pt" viewBox="0 0 219.000000 217.000000"
 preserveAspectRatio="xMidYMid meet">

<g transform="translate(0.000000,217.000000) scale(0.100000,-0.100000)"
fill="#000000" stroke="none">
<path d="M1021 2049 c-40 -4 -78 -13 -85 -19 -8 -10 -5 -11 16 -6 16 4 30 1
34 -6 5 -8 2 -9 -9 -5 -11 4 -17 1 -17 -8 0 -8 -5 -15 -11 -15 -8 0 -8 -5 1
-15 7 -8 17 -15 22 -15 6 0 5 7 -2 15 -10 12 -10 15 3 15 8 0 18 -6 21 -12 5
-10 7 -10 12 -1 8 18 34 4 34 -18 0 -11 7 -19 18 -19 14 0 14 2 3 9 -12 8 -12
11 1 24 11 11 19 12 26 5 17 -17 52 1 54 28 0 13 1 29 2 35 1 15 -31 17 -123
8z m83 -20 c-3 -5 -10 -7 -15 -3 -5 3 -7 10 -3 15 3 5 10 7 15 3 5 -3 7 -10 3
-15z m-20 -13 c19 -19 18 -19 -8 -12 -15 4 -26 2 -26 -4 0 -5 -5 -10 -11 -10
-6 0 -9 9 -6 20 6 23 -3 26 -21 8 -9 -9 -12 -8 -12 5 0 23 58 19 84 -7z m38
-28 c-7 -7 -12 -8 -12 -2 0 14 12 26 19 19 2 -3 -1 -11 -7 -17z"/>
<path d="M1284 2049 c-4 -7 -22 -9 -43 -6 -34 4 -37 2 -39 -21 -1 -15 6 -33
18 -44 24 -23 30 -23 30 0 0 9 5 24 11 32 8 11 9 5 4 -25 -5 -31 -4 -37 5 -28
10 9 17 7 32 -7 13 -12 31 -17 49 -15 20 3 27 0 23 -7 -4 -6 1 -17 11 -25 17
-12 20 -10 31 17 7 17 18 30 24 30 15 0 12 -17 -5 -24 -16 -6 -21 -36 -6 -36
6 0 17 10 25 22 19 26 21 19 5 -15 -9 -21 -7 -29 11 -50 26 -30 33 -28 54 15
15 29 15 32 -4 45 -11 8 -27 29 -34 46 -9 20 -15 25 -15 15 -1 -20 -16 -24
-27 -7 -3 6 0 15 7 20 9 6 1 7 -24 3 -34 -6 -41 -3 -72 30 -19 21 -32 30 -29
22 4 -11 0 -16 -11 -16 -9 0 -14 -4 -11 -9 3 -5 -1 -12 -9 -15 -13 -4 -14 -2
-5 14 6 11 8 20 4 20 -3 0 -1 7 6 15 8 9 9 15 2 15 -6 0 -14 -5 -18 -11z m-41
-39 c-5 -20 -15 -25 -26 -14 -9 9 4 34 18 34 8 0 11 -8 8 -20z m87 -35 c0 -8
-7 -15 -15 -15 -8 0 -15 7 -15 15 0 8 7 15 15 15 8 0 15 -7 15 -15z m38 -17
c-6 -18 -28 -21 -28 -4 0 9 7 16 16 16 9 0 14 -5 12 -12z m42 -19 c-7 -11 -14
-19 -16 -16 -7 7 7 37 17 37 6 0 5 -9 -1 -21z m95 -39 c-3 -5 -15 -15 -26 -21
-19 -10 -20 -9 -9 10 6 12 18 21 26 21 8 0 12 -4 9 -10z m9 -35 c-4 -8 -10
-15 -16 -15 -5 0 -6 -5 -2 -12 4 -7 3 -8 -4 -4 -18 11 -14 34 6 39 9 3 18 5
19 6 1 0 0 -6 -3 -14z"/>
<path d="M826 1994 c-16 -9 -42 -14 -58 -12 -16 3 -31 1 -34 -4 -3 -4 2 -8 10
-8 22 0 20 -17 -1 -25 -32 -10 -83 -64 -77 -80 3 -8 10 -15 15 -15 4 0 6 6 3
14 -3 7 3 16 12 20 16 6 28 -3 37 -29 2 -6 10 -4 20 4 9 7 14 17 11 22 -3 5 2
9 11 9 8 0 20 10 25 23 7 17 9 18 9 4 1 -16 3 -16 26 -1 14 9 25 23 25 32 0
13 3 12 15 -4 18 -23 19 -11 3 33 -14 38 -13 38 -52 17z m17 -16 c-13 -6 -23
-15 -23 -20 0 -5 -5 -6 -12 -2 -14 9 18 34 41 33 11 0 8 -4 -6 -11z m-53 -28
c0 -5 -7 -10 -15 -10 -7 0 -19 -8 -24 -17 -7 -13 -10 -14 -11 -4 0 13 28 40
43 41 4 0 7 -4 7 -10z m60 -6 c0 -8 -4 -12 -10 -9 -5 3 -10 10 -10 16 0 5 5 9
10 9 6 0 10 -7 10 -16z m-60 -35 c0 -5 -4 -9 -10 -9 -5 0 -10 7 -10 16 0 8 5
12 10 9 6 -3 10 -10 10 -16z m-41 -34 c0 -5 -6 -1 -14 9 -8 11 -15 24 -15 30
0 5 7 1 15 -10 8 -10 14 -23 14 -29z"/>
<path d="M696 1872 c-4 -7 -2 -12 5 -12 8 0 8 -4 -1 -15 -10 -13 -9 -15 9 -15
24 0 26 9 8 35 -10 12 -16 14 -21 7z"/>
<path d="M1578 1816 c-30 -37 -37 -56 -14 -37 11 9 15 5 20 -20 4 -22 10 -30
21 -25 10 3 15 -1 15 -14 0 -21 49 -83 50 -62 0 14 30 17 30 2 0 -5 -8 -13
-17 -19 -10 -5 -15 -12 -11 -16 3 -4 20 3 37 16 25 18 31 29 30 58 -1 20 -3
28 -6 19 -6 -26 -14 -22 -50 22 -19 22 -33 51 -34 67 0 22 -2 24 -8 10 -6 -18
-8 -18 -21 -2 -12 14 -12 18 1 26 12 7 12 9 -1 9 -8 0 -27 -16 -42 -34z m32
-6 c0 -5 -4 -10 -10 -10 -5 0 -10 5 -10 10 0 6 5 10 10 10 6 0 10 -4 10 -10z
m10 -34 c0 -8 -4 -17 -9 -21 -12 -7 -24 12 -16 25 9 15 25 12 25 -4z m29 -27
c-22 -14 -33 -10 -19 6 7 8 17 12 22 9 6 -4 5 -10 -3 -15z m18 -34 c-2 -5 -10
-10 -17 -10 -7 0 -15 5 -17 10 -2 6 6 11 17 11 11 0 19 -5 17 -11z m42 -27
c13 -21 13 -22 -3 -9 -15 13 -21 13 -39 1 -22 -13 -22 -13 -3 9 24 26 28 26
45 -1z"/>
<path d="M569 1821 c7 -5 10 -14 7 -20 -11 -16 -24 -13 -28 7 -3 16 -4 16 -10
0 -5 -12 4 -28 29 -52 36 -33 36 -34 56 -15 12 10 24 19 29 19 4 0 8 5 8 11 0
5 -4 7 -10 4 -5 -3 -10 1 -10 9 0 9 -7 16 -16 16 -13 0 -13 -2 2 -17 11 -12
13 -18 5 -21 -18 -6 -24 4 -23 38 1 26 -3 30 -26 30 -19 0 -23 -3 -13 -9z m25
-47 c9 -24 7 -28 -9 -14 -17 14 -20 30 -6 30 5 0 12 -7 15 -16z"/>
<path d="M1069 1694 c-20 -38 -52 -100 -72 -139 -86 -162 -71 -343 36 -453 41
-42 42 -44 22 -58 -15 -12 -40 -15 -105 -12 -144 7 -235 64 -324 202 -29 45
-65 92 -80 105 -40 37 -33 45 32 38 85 -9 90 -13 97 -65 10 -82 25 -120 56
-146 78 -66 167 6 123 99 -17 37 -96 105 -120 105 -8 0 -14 3 -14 8 0 17 59
274 64 279 14 15 65 -62 81 -122 16 -57 17 -75 6 -132 -6 -36 -10 -67 -8 -70
11 -10 40 88 45 150 6 85 -15 145 -73 202 -47 48 -110 77 -100 47 3 -10 1 -41
-5 -68 -58 -274 -53 -259 -80 -257 -14 2 -72 6 -129 9 l-105 7 35 -35 c19 -19
52 -68 73 -109 22 -41 50 -89 64 -107 l25 -33 -115 -117 c-103 -105 -198 -218
-198 -235 0 -4 158 -7 351 -7 l351 0 30 -25 c39 -33 93 -33 142 0 l37 25 350
2 351 3 -48 65 c-27 36 -98 115 -157 177 l-109 112 30 43 c16 24 47 75 68 113
20 39 50 82 66 97 l29 27 -36 7 c-21 4 -70 0 -118 -10 -45 -9 -87 -16 -94 -16
-6 0 -14 19 -18 43 -3 23 -17 91 -31 151 -14 60 -23 117 -21 127 11 40 -62 11
-110 -44 -17 -19 -38 -56 -48 -81 -24 -62 -17 -175 14 -231 15 -28 20 -32 16
-15 -16 73 -17 149 -1 197 16 47 69 123 79 113 5 -5 67 -260 67 -277 0 -5 -18
-17 -40 -27 -61 -27 -100 -80 -100 -137 0 -60 24 -84 76 -76 20 3 43 12 51 19
25 21 53 89 53 133 0 52 7 61 55 74 38 10 105 15 105 7 0 -2 -18 -23 -41 -47
-22 -24 -58 -74 -80 -111 -44 -75 -85 -112 -167 -154 -46 -23 -71 -29 -146
-32 -69 -3 -96 0 -110 11 -19 14 -18 16 18 47 127 112 139 331 28 503 -23 34
-51 86 -64 116 l-23 54 -36 -69z m91 -212 c52 -155 43 -294 -24 -377 -31 -38
-51 -29 -88 44 -50 97 -47 223 9 355 14 34 30 72 35 86 9 23 10 24 23 7 7 -10
27 -61 45 -115z m-336 -224 c16 -29 19 -42 11 -65 -14 -40 -64 -45 -93 -9 -20
26 -39 127 -27 146 11 18 86 -32 109 -72z m649 -61 c-23 -38 -69 -49 -90 -21
-32 44 -3 108 65 143 l37 19 3 -55 c2 -39 -2 -63 -15 -86z m-706 -164 c81 -37
194 -43 278 -15 l60 21 60 -21 c119 -40 270 -12 374 71 l37 30 86 -102 86
-102 -45 -3 c-29 -2 -97 10 -187 34 -178 47 -248 49 -326 11 -30 -14 -62 -32
-70 -38 -13 -9 -26 -5 -64 19 -95 61 -164 62 -371 6 -49 -13 -121 -27 -159
-31 -81 -7 -84 -17 33 120 l74 86 38 -29 c20 -17 64 -42 96 -57z m741 -129
c57 -17 122 -28 187 -31 95 -5 135 -18 135 -45 0 -4 -145 -8 -323 -8 l-324 0
-23 -25 c-15 -16 -34 -25 -55 -25 -21 0 -40 9 -55 25 l-23 25 -324 0 c-178 0
-323 4 -323 8 0 26 40 40 125 45 51 3 142 18 212 36 188 48 287 39 352 -33 14
-14 28 -26 32 -26 5 0 23 13 41 29 88 76 176 82 366 25z"/>
<path d="M725 894 c-50 -14 -133 -27 -188 -31 -54 -3 -100 -11 -104 -16 -12
-19 179 1 311 33 143 35 169 35 254 -7 68 -32 78 -23 15 14 -67 39 -163 42
-288 7z"/>
<path d="M1225 901 c-46 -22 -85 -50 -69 -51 6 0 31 11 55 24 72 40 118 41
254 6 112 -28 330 -53 313 -35 -3 4 -28 9 -55 11 -121 10 -154 15 -243 39
-114 30 -199 32 -255 6z"/>
<path d="M735 867 c-87 -22 -91 -24 -82 -33 3 -3 55 6 115 21 116 29 124 29
215 -10 9 -4 17 -3 17 3 0 18 -79 42 -133 41 -28 -1 -88 -10 -132 -22z"/>
<path d="M1243 874 c-17 -7 -35 -19 -39 -25 -8 -13 1 -11 74 16 47 17 117 10
203 -20 45 -16 79 -19 79 -7 0 12 -182 52 -235 51 -27 0 -64 -7 -82 -15z"/>
<path d="M820 851 c0 -4 25 -9 55 -9 31 0 53 4 49 9 -7 11 -104 12 -104 0z"/>
<path d="M1280 851 c0 -5 25 -9 55 -9 30 0 52 5 49 9 -7 12 -104 11 -104 0z"/>
<path d="M486 1689 c-11 -18 -14 -29 -9 -26 6 4 13 -3 16 -14 8 -28 42 -21 41
9 0 15 3 19 11 12 7 -5 15 -7 18 -4 5 5 -44 54 -55 54 -2 0 -12 -14 -22 -31z
m24 -4 c-7 -9 -15 -13 -17 -11 -7 7 7 26 19 26 6 0 6 -6 -2 -15z m17 -41 c-9
-9 -28 6 -21 18 4 6 10 6 17 -1 6 -6 8 -13 4 -17z"/>
<path d="M397 743 c-4 -3 -7 -12 -7 -20 0 -15 26 -18 34 -4 7 11 -18 33 -27
24z"/>
<path d="M491 736 c-10 -12 -8 -17 7 -25 15 -8 21 -7 25 3 9 22 -18 40 -32 22z"/>
<path d="M590 736 c-9 -12 -7 -17 9 -26 18 -9 21 -8 21 9 0 26 -15 34 -30 17z"/>
<path d="M710 735 c10 -12 38 -15 137 -15 123 0 124 0 162 -30 64 -52 150 -50
201 5 23 24 28 25 150 25 95 0 131 4 146 15 17 13 2 14 -143 15 -104 0 -163
-4 -163 -10 0 -16 -62 -50 -93 -50 -34 0 -82 24 -90 45 -5 13 -31 15 -163 15
-138 0 -155 -2 -144 -15z"/>
<path d="M1594 736 c-10 -26 -1 -38 20 -23 16 12 16 14 2 26 -13 11 -17 11
-22 -3z"/>
<path d="M1692 738 c-14 -14 -4 -38 14 -31 15 6 19 29 6 37 -5 3 -14 0 -20 -6z"/>
<path d="M1787 734 c-9 -10 2 -24 19 -24 8 0 14 7 14 15 0 15 -21 21 -33 9z"/>
<path d="M820 675 c0 -21 5 -25 30 -25 30 0 43 23 18 33 -7 3 -3 6 9 6 15 1
23 -6 26 -21 l4 -23 2 23 c1 28 21 29 21 1 0 -14 5 -19 18 -17 9 2 17 12 17
23 0 18 -8 20 -72 23 -72 3 -73 3 -73 -23z m40 0 c10 -12 9 -15 -7 -15 -11 0
-20 7 -20 15 0 8 4 15 7 15 4 0 13 -7 20 -15z m95 6 c3 -5 1 -12 -5 -16 -5 -3
-10 1 -10 9 0 18 6 21 15 7z"/>
<path d="M1267 684 c10 -7 15 -16 10 -20 -4 -4 -7 -2 -7 5 0 7 -4 9 -10 6 -22
-14 -7 -22 40 -22 45 0 50 2 50 22 0 20 -5 22 -50 22 -43 0 -48 -1 -33 -13z
m70 -16 c-3 -8 -6 -5 -6 6 -1 11 2 17 5 13 3 -3 4 -12 1 -19z"/>
<path d="M1368 691 c8 -4 14 -12 14 -16 0 -4 -6 -12 -14 -16 -10 -7 -9 -9 5
-9 12 0 17 8 17 25 0 17 -5 25 -17 25 -14 0 -15 -2 -5 -9z"/>
<path d="M471 598 c-35 -12 -26 -47 15 -64 27 -11 34 -18 26 -26 -9 -9 -16 -7
-30 5 -24 22 -32 21 -32 -2 0 -23 52 -36 81 -21 35 19 20 63 -25 71 -11 2 -19
8 -19 14 2 16 20 17 36 0 20 -20 27 -19 27 4 0 21 -44 32 -79 19z"/>
<path d="M278 588 c16 -16 16 -70 0 -86 -9 -9 -3 -12 27 -12 30 0 36 3 27 12
-7 7 -12 26 -12 43 0 17 5 36 12 43 9 9 3 12 -27 12 -30 0 -36 -3 -27 -12z"/>
<path d="M368 588 c7 -7 12 -26 12 -43 0 -17 -5 -36 -12 -43 -9 -9 -3 -12 27
-12 30 0 36 3 27 12 -7 7 -12 26 -12 43 0 17 5 36 12 43 9 9 3 12 -27 12 -30
0 -36 -3 -27 -12z"/>
<path d="M580 579 c0 -19 2 -20 16 -8 15 12 16 9 13 -34 -4 -45 -3 -47 21 -47
24 0 25 2 22 52 -2 47 -1 51 11 36 15 -18 27 -14 27 9 0 9 -16 13 -55 13 -49
0 -55 -2 -55 -21z"/>
<path d="M928 588 c16 -16 16 -70 0 -86 -9 -9 -3 -12 27 -12 30 0 36 3 27 12
-16 16 -15 85 1 91 6 3 -6 6 -27 6 -31 1 -37 -2 -28 -11z"/>
<path d="M1016 588 c9 -15 10 -58 1 -81 -5 -14 0 -17 30 -17 29 0 34 3 25 12
-16 16 -15 85 1 91 6 3 -5 6 -26 6 -27 1 -36 -2 -31 -11z"/>
<path d="M1105 545 c0 -53 1 -55 26 -55 22 0 26 4 22 24 -4 21 -1 25 23 28 23
2 29 8 29 28 0 23 -4 25 -50 28 l-50 3 0 -56z m70 25 c0 -7 -6 -15 -12 -17 -8
-3 -13 4 -13 17 0 13 5 20 13 18 6 -3 12 -11 12 -18z"/>
<path d="M1455 545 c0 -52 1 -55 25 -55 24 0 25 3 25 55 0 52 -1 55 -25 55
-24 0 -25 -3 -25 -55z"/>
<path d="M1545 545 c0 -52 1 -55 25 -55 24 0 25 3 25 55 0 52 -1 55 -25 55
-24 0 -25 -3 -25 -55z"/>
<path d="M1635 545 c0 -43 3 -55 15 -55 12 0 15 9 13 38 l-3 37 13 -35 c13
-32 18 -35 58 -38 l44 -3 0 56 c0 53 -1 55 -27 55 -20 0 -29 -7 -36 -27 l-10
-28 -7 28 c-5 21 -13 27 -34 27 -25 0 -26 -2 -26 -55z m96 -38 c-8 -8 -11 -5
-11 9 0 27 14 41 18 19 2 -9 -1 -22 -7 -28z"/>
<path d="M1808 588 c7 -7 12 -26 12 -43 0 -17 -5 -36 -12 -43 -9 -9 -3 -12 27
-12 30 0 36 3 27 12 -17 17 -15 38 3 38 9 0 15 -9 15 -24 0 -24 23 -41 41 -30
5 3 9 12 9 20 0 8 -4 13 -9 10 -13 -8 -21 30 -9 42 6 6 8 18 5 26 -5 12 -21
16 -64 16 -44 0 -54 -3 -45 -12z m72 -19 c0 -5 -7 -9 -15 -9 -15 0 -20 12 -9
23 8 8 24 -1 24 -14z"/>
<path d="M780 524 c0 -10 7 -14 22 -12 32 5 35 28 4 28 -17 0 -26 -5 -26 -16z"/>
<path d="M1310 525 c0 -8 9 -15 20 -15 11 0 20 7 20 15 0 8 -9 15 -20 15 -11
0 -20 -7 -20 -15z"/>
</g>
</svg>
