<?xml version="1.0" standalone="no"?>
<!DOCTYPE svg PUBLIC "-//W3C//DTD SVG 20010904//EN"
 "http://www.w3.org/TR/2001/REC-SVG-20010904/DTD/svg10.dtd">
<svg version="1.0" xmlns="http://www.w3.org/2000/svg"
 width="265.000000pt" height="237.000000pt" viewBox="0 0 265.000000 237.000000"
 preserveAspectRatio="xMidYMid meet">

<g transform="translate(0.000000,237.000000) scale(0.100000,-0.100000)"
fill="#000000" stroke="none">
<path d="M1535 2009 c-11 -17 1 -21 15 -4 8 9 8 15 2 15 -6 0 -14 -5 -17 -11z"/>
<path d="M887 2003 c-13 -13 -7 -21 13 -16 11 3 20 9 20 14 0 10 -24 12 -33 2z"/>
<path d="M800 1970 c0 -5 7 -10 15 -10 8 0 15 5 15 10 0 6 -7 10 -15 10 -8 0
-15 -4 -15 -10z"/>
<path d="M1960 1970 c0 -5 5 -10 10 -10 6 0 10 5 10 10 0 6 -4 10 -10 10 -5 0
-10 -4 -10 -10z"/>
<path d="M1818 1923 c7 -3 16 -2 19 1 4 3 -2 6 -13 5 -11 0 -14 -3 -6 -6z"/>
<path d="M1708 1833 c7 -3 16 -2 19 1 4 3 -2 6 -13 5 -11 0 -14 -3 -6 -6z"/>
<path d="M731 1721 c-11 -7 -9 -10 8 -16 25 -8 36 -2 26 14 -8 13 -15 14 -34
2z"/>
<path d="M1027 1707 c-18 -15 -27 -33 -27 -53 0 -35 -16 -54 -45 -54 -41 0
-98 22 -121 47 -19 20 -26 23 -43 13 -12 -6 -21 -17 -21 -25 0 -17 -30 -19
-76 -6 -30 8 -31 8 -20 -15 9 -19 19 -24 47 -24 31 0 38 -4 43 -26 7 -25 8
-26 74 -20 37 3 83 8 103 12 29 5 37 3 43 -11 3 -9 3 -22 0 -27 -9 -15 -12
-128 -3 -128 13 0 18 -44 6 -59 -7 -8 -11 -22 -9 -33 2 -10 -3 -18 -11 -18 -8
0 -17 -7 -21 -15 -4 -12 3 -15 35 -15 41 0 69 -17 69 -43 0 -8 7 -18 16 -21
23 -9 64 -7 64 3 0 5 10 12 23 15 22 6 22 7 3 21 -11 8 -16 15 -11 15 4 0 -2
9 -15 20 -13 11 -30 20 -39 20 -20 0 -49 42 -32 48 6 2 11 10 11 18 0 8 5 14
10 14 6 0 10 7 10 15 0 8 -4 15 -10 15 -22 0 -10 70 17 98 24 26 29 28 52 16
18 -9 41 -10 76 -4 28 5 79 9 114 9 45 1 70 6 82 17 22 20 49 12 49 -15 0 -11
9 -28 19 -38 11 -10 27 -38 37 -63 22 -57 21 -55 39 -40 27 23 12 190 -17 190
-4 0 -8 4 -8 10 0 20 -36 52 -86 76 -44 21 -65 24 -162 24 -103 0 -157 -10
-173 -33 -3 -5 -25 -11 -48 -14 -37 -5 -41 -4 -41 16 0 12 4 19 10 16 6 -4 10
6 10 23 0 24 4 29 19 25 11 -3 21 2 24 11 10 25 -35 20 -66 -7z"/>
<path d="M555 1660 c-9 -15 3 -30 24 -30 21 0 44 23 34 33 -10 11 -51 8 -58
-3z"/>
<path d="M918 1663 c7 -3 16 -2 19 1 4 3 -2 6 -13 5 -11 0 -14 -3 -6 -6z"/>
<path d="M746 1532 c-3 -6 -1 -14 5 -17 15 -10 25 3 12 16 -7 7 -13 7 -17 1z"/>
<path d="M1400 1455 c-10 -12 -7 -15 14 -21 14 -3 34 -3 43 1 17 6 17 7 -1 21
-25 18 -40 18 -56 -1z"/>
<path d="M1170 1444 c0 -11 9 -14 37 -12 52 4 56 28 4 28 -30 0 -41 -4 -41
-16z"/>
<path d="M850 1320 c0 -13 18 -22 24 -11 3 5 -1 11 -9 15 -8 3 -15 1 -15 -4z"/>
<path d="M1514 1302 c-13 -21 1 -38 40 -48 14 -3 26 -10 26 -15 0 -5 4 -9 9
-9 11 0 -9 60 -26 78 -16 17 -36 15 -49 -6z"/>
<path d="M830 1145 c0 -8 5 -15 11 -15 6 0 24 -14 39 -30 18 -19 34 -28 44
-24 23 9 20 24 -4 24 -11 0 -20 4 -20 9 0 5 -9 11 -20 14 -11 3 -20 12 -20 21
0 9 -7 16 -15 16 -8 0 -15 -7 -15 -15z"/>
<path d="M1800 1130 c0 -5 5 -10 10 -10 6 0 10 5 10 10 0 6 -4 10 -10 10 -5 0
-10 -4 -10 -10z"/>
<path d="M1870 1100 c-25 -6 -25 -6 -3 -14 25 -8 66 7 42 16 -8 2 -25 2 -39
-2z"/>
<path d="M2483 1010 c-29 -12 -32 -45 -3 -37 11 3 22 2 25 -3 3 -4 -5 -10 -16
-13 -16 -4 -20 -11 -15 -23 4 -10 2 -21 -5 -24 -17 -11 12 -50 38 -50 13 0 23
-4 23 -9 0 -13 -39 -21 -71 -14 -22 4 -29 2 -29 -11 0 -15 11 -20 38 -17 22 3
13 -15 -15 -29 l-28 -14 30 -3 c17 -2 39 -8 50 -13 11 -5 27 -11 35 -14 8 -3
-16 -3 -55 0 -63 5 -68 5 -56 -10 7 -9 22 -16 32 -16 11 0 19 -5 19 -10 0 -16
-33 -26 -38 -12 -6 18 -62 15 -62 -3 0 -10 10 -15 29 -15 17 0 32 -4 35 -9 9
-13 65 10 59 25 -2 7 10 14 31 18 54 10 57 60 5 71 -38 8 -37 17 6 46 64 44
57 69 -18 69 -42 1 -48 3 -34 11 10 6 38 9 63 7 49 -4 57 6 19 24 -30 13 -33
38 -6 38 11 0 22 4 25 9 16 25 -70 49 -111 31z"/>
<path d="M130 952 c-76 -4 -110 -12 -110 -27 0 -11 16 -13 76 -10 73 3 109 16
89 33 -6 4 -30 6 -55 4z"/>
<path d="M170 900 c0 -5 5 -10 11 -10 5 0 7 5 4 10 -3 6 -8 10 -11 10 -2 0 -4
-4 -4 -10z"/>
<path d="M1527 888 c-4 -16 -11 -28 -16 -28 -5 0 -2 -14 7 -32 8 -18 17 -27
20 -20 2 7 -1 19 -7 26 -9 11 -9 15 -1 18 7 2 10 17 8 33 l-3 30 -8 -27z"/>
<path d="M1755 900 c-3 -5 1 -10 10 -10 9 0 13 5 10 10 -3 6 -8 10 -10 10 -2
0 -7 -4 -10 -10z"/>
<path d="M965 879 l-40 -18 54 -1 c49 0 52 1 40 18 -7 9 -13 17 -14 18 0 1
-18 -7 -40 -17z"/>
<path d="M31 874 c0 -11 3 -14 6 -6 3 7 2 16 -1 19 -3 4 -6 -2 -5 -13z"/>
<path d="M1653 878 c7 -5 1 -8 -15 -8 -16 0 -28 -4 -28 -9 0 -5 -10 -12 -22
-15 -13 -2 -3 -3 22 0 25 2 55 4 68 4 12 0 22 5 22 10 0 6 7 10 15 10 8 0 15
4 15 10 0 5 -20 9 -45 8 -25 -1 -39 -6 -32 -10z"/>
<path d="M1844 879 c-6 -11 19 -22 40 -17 11 2 9 6 -9 15 -15 6 -27 7 -31 2z"/>
<path d="M1096 863 c-6 -14 -5 -15 5 -6 7 7 10 15 7 18 -3 3 -9 -2 -12 -12z"/>
<path d="M1336 871 c-6 -9 68 -22 118 -20 32 1 34 1 -86 23 -15 3 -30 2 -32
-3z"/>
<path d="M1272 863 c-15 -6 -6 -23 14 -23 8 0 14 7 14 15 0 15 -6 17 -28 8z"/>
<path d="M1815 860 c-3 -5 -1 -10 4 -10 6 0 11 5 11 10 0 6 -2 10 -4 10 -3 0
-8 -4 -11 -10z"/>
<path d="M123 845 c-6 -6 -14 -21 -17 -33 -4 -12 -12 -22 -17 -22 -5 0 -9 -7
-9 -16 0 -9 3 -14 8 -12 48 24 61 34 71 54 6 13 15 24 21 24 5 0 10 5 10 10 0
14 -54 9 -67 -5z"/>
<path d="M610 849 c0 -5 5 -7 10 -4 6 3 10 8 10 11 0 2 -4 4 -10 4 -5 0 -10
-5 -10 -11z"/>
<path d="M640 850 c0 -5 5 -10 11 -10 5 0 7 5 4 10 -3 6 -8 10 -11 10 -2 0 -4
-4 -4 -10z"/>
<path d="M710 850 c0 -5 9 -10 21 -10 11 0 17 5 14 10 -3 6 -13 10 -21 10 -8
0 -14 -4 -14 -10z"/>
<path d="M1168 853 c7 -3 16 -2 19 1 4 3 -2 6 -13 5 -11 0 -14 -3 -6 -6z"/>
<path d="M778 833 c6 -2 18 -2 25 0 6 3 1 5 -13 5 -14 0 -19 -2 -12 -5z"/>
<path d="M464 799 c-3 -5 6 -9 20 -9 31 0 34 6 6 13 -11 3 -23 1 -26 -4z"/>
<path d="M2160 796 c0 -9 7 -16 16 -16 9 0 14 5 12 12 -6 18 -28 21 -28 4z"/>
<path d="M778 793 c6 -2 18 -2 25 0 6 3 1 5 -13 5 -14 0 -19 -2 -12 -5z"/>
<path d="M1768 793 c6 -2 18 -2 25 0 6 3 1 5 -13 5 -14 0 -19 -2 -12 -5z"/>
<path d="M1840 790 c0 -5 4 -10 9 -10 6 0 13 5 16 10 3 6 -1 10 -9 10 -9 0
-16 -4 -16 -10z"/>
<path d="M1958 793 c6 -2 18 -2 25 0 6 3 1 5 -13 5 -14 0 -19 -2 -12 -5z"/>
<path d="M2083 749 c-9 -9 -8 -15 2 -25 21 -21 35 -17 35 11 0 26 -18 33 -37
14z"/>
<path d="M209 739 c-8 -5 -27 -9 -42 -9 -36 0 -67 -16 -67 -35 0 -16 25 -21
34 -6 3 5 31 12 61 16 35 4 55 11 55 20 0 17 -23 25 -41 14z"/>
<path d="M495 740 c3 -5 8 -10 11 -10 2 0 4 5 4 10 0 6 -5 10 -11 10 -5 0 -7
-4 -4 -10z"/>
<path d="M875 720 c-3 -5 1 -10 9 -10 9 0 16 5 16 10 0 6 -4 10 -9 10 -6 0
-13 -4 -16 -10z"/>
<path d="M970 720 c0 -5 5 -10 10 -10 6 0 10 5 10 10 0 6 -4 10 -10 10 -5 0
-10 -4 -10 -10z"/>
<path d="M1655 720 c-3 -5 1 -10 10 -10 9 0 13 5 10 10 -3 6 -8 10 -10 10 -2
0 -7 -4 -10 -10z"/>
<path d="M838 713 c7 -3 16 -2 19 1 4 3 -2 6 -13 5 -11 0 -14 -3 -6 -6z"/>
<path d="M550 695 c-9 -11 -10 -15 -1 -15 7 0 19 7 27 15 13 13 13 15 1 15 -8
0 -20 -7 -27 -15z"/>
<path d="M448 673 c7 -3 16 -2 19 1 4 3 -2 6 -13 5 -11 0 -14 -3 -6 -6z"/>
<path d="M245 660 c-3 -5 -17 -10 -31 -10 -13 0 -24 -4 -24 -9 0 -5 -13 -11
-30 -14 -35 -7 -41 -27 -7 -27 42 0 142 37 145 54 3 11 -4 16 -22 16 -14 0
-28 -4 -31 -10z"/>
<path d="M1057 663 c-15 -14 -6 -31 13 -26 11 3 20 12 20 19 0 14 -22 19 -33
7z"/>
<path d="M1210 660 c0 -6 -20 -9 -45 -8 -25 0 -48 -2 -52 -6 -15 -14 17 -21
74 -16 45 4 59 9 61 23 2 12 -3 17 -17 17 -12 0 -21 -5 -21 -10z"/>
<path d="M1307 656 c-3 -8 -3 -17 0 -20 8 -7 43 12 43 24 0 15 -37 12 -43 -4z"/>
<path d="M1368 638 c9 -9 15 -9 24 0 9 9 7 12 -12 12 -19 0 -21 -3 -12 -12z"/>
<path d="M1411 646 c7 -7 88 -11 94 -5 3 3 -18 7 -47 8 -28 1 -50 -1 -47 -3z"/>
<path d="M1987 624 c-8 -8 1 -24 14 -24 5 0 9 7 9 15 0 15 -12 20 -23 9z"/>
<path d="M2366 621 c5 -5 26 -14 47 -21 20 -6 37 -16 37 -21 0 -14 -15 -11
-65 13 -24 12 -47 19 -51 15 -12 -12 5 -37 26 -37 11 0 20 -4 20 -10 0 -15 70
-12 86 4 20 20 18 32 -8 50 -23 17 -110 23 -92 7z"/>
<path d="M714 605 c-10 -8 -14 -15 -8 -15 5 0 19 7 30 15 10 8 14 15 8 15 -5
0 -19 -7 -30 -15z"/>
<path d="M2125 610 c-3 -5 3 -10 14 -10 12 0 21 5 21 10 0 6 -6 10 -14 10 -8
0 -18 -4 -21 -10z"/>
<path d="M271 595 c-18 -8 -44 -15 -58 -15 -34 0 -24 -24 12 -28 32 -4 95 26
95 45 0 16 -7 16 -49 -2z"/>
<path d="M750 581 c0 -5 7 -15 17 -22 15 -13 15 -12 4 9 -12 23 -21 28 -21 13z"/>
<path d="M1920 580 c0 -5 7 -7 15 -4 8 4 15 8 15 10 0 2 -7 4 -15 4 -8 0 -15
-4 -15 -10z"/>
<path d="M1200 570 c0 -12 8 -12 35 0 18 8 17 9 -7 9 -16 1 -28 -3 -28 -9z"/>
<path d="M587 563 c-4 -3 -7 -16 -7 -27 1 -21 1 -21 15 -2 8 11 15 23 15 28 0
10 -14 11 -23 1z"/>
<path d="M825 560 c3 -5 10 -10 16 -10 5 0 9 5 9 10 0 6 -7 10 -16 10 -8 0
-12 -4 -9 -10z"/>
<path d="M871 551 c-17 -31 -13 -51 9 -51 11 0 20 5 20 10 0 6 -5 10 -10 10
-7 0 -7 6 0 19 6 13 6 22 1 26 -6 3 -15 -3 -20 -14z"/>
<path d="M1805 560 c-8 -13 3 -30 18 -30 7 0 18 9 25 20 11 18 10 20 -12 20
-14 0 -28 -4 -31 -10z"/>
<path d="M2270 545 c0 -8 12 -18 28 -21 15 -4 30 -11 33 -16 3 -5 25 -12 48
-15 35 -5 41 -3 35 11 -3 9 -16 16 -28 16 -11 0 -34 9 -51 20 -36 24 -65 26
-65 5z"/>
<path d="M220 510 c0 -5 7 -10 15 -10 8 0 15 5 15 10 0 6 -7 10 -15 10 -8 0
-15 -4 -15 -10z"/>
<path d="M620 510 c0 -5 5 -10 10 -10 6 0 10 5 10 10 0 6 -4 10 -10 10 -5 0
-10 -4 -10 -10z"/>
<path d="M1000 510 c0 -5 4 -10 9 -10 5 0 12 -8 14 -17 3 -11 5 -7 6 10 1 18
-4 27 -14 27 -8 0 -15 -4 -15 -10z"/>
<path d="M1980 508 c0 -11 22 -10 40 2 11 8 9 9 -12 8 -16 -1 -28 -6 -28 -10z"/>
<path d="M2030 500 c-13 -8 -12 -10 3 -10 9 0 17 5 17 10 0 12 -1 12 -20 0z"/>
<path d="M1083 493 c-18 -7 -16 -43 2 -43 9 0 15 9 15 25 0 14 -1 25 -2 24 -2
0 -9 -3 -15 -6z"/>
<path d="M1650 485 c0 -8 6 -15 14 -15 7 0 19 7 26 15 11 13 8 15 -14 15 -16
0 -26 -5 -26 -15z"/>
<path d="M348 461 c-45 -25 -63 -51 -35 -51 22 -1 126 55 127 68 0 19 -41 12
-92 -17z"/>
<path d="M695 480 c3 -5 1 -10 -4 -10 -6 0 -11 -4 -11 -9 0 -5 11 -4 25 2 30
14 32 27 4 27 -11 0 -17 -4 -14 -10z"/>
<path d="M1520 483 c0 -5 14 -16 30 -25 33 -19 42 -4 13 18 -20 15 -43 18 -43
7z"/>
<path d="M753 450 c-27 -21 -29 -30 -8 -30 13 0 41 37 33 45 -2 2 -13 -5 -25
-15z"/>
<path d="M1270 445 c0 -18 5 -25 20 -25 21 0 24 8 14 34 -10 25 -34 19 -34 -9z"/>
<path d="M1905 460 c-8 -13 20 -24 36 -15 8 6 7 10 -2 16 -18 11 -26 11 -34
-1z"/>
<path d="M1120 440 c0 -5 5 -10 10 -10 6 0 10 5 10 10 0 6 -4 10 -10 10 -5 0
-10 -4 -10 -10z"/>
<path d="M427 423 c-27 -14 -27 -16 -12 -33 15 -17 15 -19 -4 -25 -12 -3 -21
-11 -21 -16 0 -12 47 -12 54 0 10 16 46 20 46 5 0 -8 -9 -14 -20 -14 -13 0
-20 -7 -20 -19 0 -25 16 -36 24 -16 3 8 12 15 21 15 18 0 20 -26 3 -33 -7 -3
-4 -6 7 -6 11 -1 28 8 38 19 9 11 26 20 37 20 13 0 20 7 20 20 0 11 -7 20 -15
20 -8 0 -15 5 -15 10 0 6 -7 10 -15 10 -8 0 -30 14 -48 30 -39 34 -41 34 -80
13z m53 -23 c-19 -12 -30 -12 -30 -1 0 10 31 20 40 14 2 -2 -2 -8 -10 -13z"/>
<path d="M1355 430 c-3 -5 3 -10 14 -10 12 0 21 5 21 10 0 6 -6 10 -14 10 -8
0 -18 -4 -21 -10z"/>
<path d="M1840 431 c0 -6 5 -13 10 -16 6 -3 10 1 10 9 0 9 -4 16 -10 16 -5 0
-10 -4 -10 -9z"/>
<path d="M803 398 c1 -28 17 -40 34 -26 18 14 16 35 -3 42 -27 10 -33 7 -31
-16z"/>
<path d="M1750 407 c0 -5 -8 -16 -17 -23 -17 -13 -17 -13 0 -14 9 0 17 5 17
10 0 6 7 10 15 10 8 0 15 6 15 13 0 8 -7 14 -15 14 -8 0 -15 -5 -15 -10z"/>
<path d="M2187 413 c-4 -4 7 -13 25 -22 31 -14 32 -15 10 -19 -13 -2 -32 4
-43 14 -18 16 -19 16 -19 -2 0 -40 47 -59 76 -30 7 8 19 16 26 19 10 3 8 10
-6 26 -18 20 -56 28 -69 14z"/>
<path d="M2285 410 c-3 -5 3 -10 15 -10 12 0 18 5 15 10 -3 6 -10 10 -15 10
-5 0 -12 -4 -15 -10z"/>
<path d="M900 382 c0 -5 11 -14 24 -20 21 -9 23 -8 19 9 -5 18 -43 28 -43 11z"/>
<path d="M1643 363 c-7 -3 -13 -14 -13 -25 0 -18 1 -18 16 -4 18 18 16 35 -3
29z"/>
<path d="M1990 340 c0 -18 7 -20 69 -20 38 0 76 -3 85 -6 20 -8 21 12 2 32
-10 9 -37 14 -85 14 -64 0 -71 -2 -71 -20z"/>
<path d="M1070 334 c0 -8 4 -13 9 -10 4 3 16 -3 26 -14 19 -21 45 -27 45 -10
0 5 -11 12 -25 16 -14 3 -25 10 -25 14 0 4 -7 10 -15 14 -9 3 -15 0 -15 -10z"/>
<path d="M1545 334 c-9 -9 -14 -19 -11 -21 9 -9 46 9 46 23 0 19 -15 18 -35
-2z"/>
<path d="M589 281 c-35 -36 -41 -61 -14 -61 8 0 19 8 24 18 5 10 26 27 45 37
43 23 47 46 9 44 -18 -1 -42 -16 -64 -38z"/>
<path d="M1368 313 c7 -3 16 -2 19 1 4 3 -2 6 -13 5 -11 0 -14 -3 -6 -6z"/>
<path d="M1440 316 c0 -2 7 -7 16 -10 8 -3 12 -2 9 4 -6 10 -25 14 -25 6z"/>
<path d="M1832 278 c-18 -18 -15 -24 33 -63 54 -44 74 -39 40 12 -14 20 -25
42 -25 49 0 17 -32 18 -48 2z"/>
<path d="M718 230 l-31 -30 23 -20 c30 -26 40 -25 40 1 0 12 13 35 30 50 l30
29 -30 0 c-20 0 -41 -10 -62 -30z"/>
<path d="M1773 253 c-21 -8 -15 -31 20 -68 23 -24 36 -32 46 -25 12 7 12 12
-2 34 -9 14 -17 32 -17 40 0 11 -24 29 -33 25 -1 0 -8 -3 -14 -6z"/>
<path d="M1950 220 c0 -5 9 -10 20 -10 11 0 20 5 20 10 0 6 -9 10 -20 10 -11
0 -20 -4 -20 -10z"/>
<path d="M952 177 c-18 -50 -16 -79 6 -75 9 2 18 13 20 26 2 13 10 22 22 22
20 0 32 -22 24 -44 -4 -10 2 -12 20 -9 21 4 26 11 26 33 0 16 6 30 13 33 9 3
9 7 -1 20 -18 21 -52 18 -52 -5 0 -10 -7 -18 -15 -18 -17 0 -20 16 -5 25 19
12 10 25 -18 25 -23 0 -30 -6 -40 -33z"/>
<path d="M1650 199 c0 -16 25 -37 54 -45 14 -3 26 -10 26 -15 0 -5 11 -9 25
-9 37 0 31 11 -24 48 -51 33 -81 41 -81 21z"/>
<path d="M1155 170 c-6 -10 33 -60 48 -60 4 0 15 -7 23 -15 19 -19 30 -19 37
-1 7 18 -25 56 -47 56 -9 0 -19 7 -22 15 -7 17 -30 20 -39 5z"/>
<path d="M1348 133 c3 -27 10 -51 16 -55 20 -14 38 -8 43 12 3 11 9 20 13 20
4 0 10 9 13 20 4 16 0 20 -19 20 -15 0 -24 6 -24 15 0 9 -9 15 -24 15 -22 0
-23 -3 -18 -47z"/>
<path d="M1650 135 c0 -8 2 -15 4 -15 2 0 6 7 10 15 3 8 1 15 -4 15 -6 0 -10
-7 -10 -15z"/>
<path d="M860 125 c0 -16 16 -20 24 -6 3 5 -1 11 -9 15 -9 3 -15 0 -15 -9z"/>
<path d="M1109 89 c16 -6 28 -6 35 1 7 7 -1 10 -24 9 -33 0 -34 -1 -11 -10z"/>
<path d="M1520 90 c0 -5 4 -10 9 -10 6 0 13 5 16 10 3 6 -1 10 -9 10 -9 0 -16
-4 -16 -10z"/>
</g>
</svg>
